<?xml version="1.0" standalone="no"?>
<!DOCTYPE svg PUBLIC "-//W3C//DTD SVG 20010904//EN"
 "http://www.w3.org/TR/2001/REC-SVG-20010904/DTD/svg10.dtd">
<svg version="1.0" xmlns="http://www.w3.org/2000/svg"
 width="128.000000pt" height="128.000000pt" viewBox="0 0 128.000000 128.000000"
 preserveAspectRatio="xMidYMid meet">
<metadata>
Created by potrace 1.11, written by Peter Selinger 2001-2013
</metadata>
<g transform="translate(0.000000,128.000000) scale(0.100000,-0.100000)"
fill="#000000" stroke="none">
<path d="M124 1252 c-22 -16 -59 -51 -82 -77 l-42 -48 0 -270 0 -270 25 -33
c68 -90 166 -153 274 -178 87 -20 211 -14 283 13 l58 22 206 -205 206 -206
114 0 114 0 0 102 0 103 -211 211 -211 211 25 80 c19 63 24 97 21 159 -3 94
-6 106 -35 175 -36 88 -103 171 -171 215 -37 24 -41 24 -286 24 l-249 0 -39
-28z"/>
</g>
</svg>
